<?xml version="1.0" encoding="UTF-8"?>
<svg id="Layer_1" xmlns="http://www.w3.org/2000/svg" version="1.1" viewBox="0 0 283.5 283.5">
  <!-- Generator: Adobe Illustrator 30.3.0, SVG Export Plug-In . SVG Version: 2.1.3 Build 182)  -->
  <defs>
    <style>
      .st0 {
        fill: #ce4f37;
      }
    </style>
  </defs>
  <path class="st0" d="M145.5,207.4c-22.6,24.3-51.7,41.1-84.7,41.3l-60.9.5,25.6-45.1,14.7-26.2,27.9-47.1,23.2-33.1c29.7-38.5,72.1-60.6,120.9-62.8l71.1-.6-14.5,60.9-34.2,153.7-36.9.2,24.3-108.5-64.6,56-12.1,10.9ZM127.4,179.9l70.6-64.8,51-46.1h-42.8c-31.8,2.3-59,18.2-81,40.6-10.6,10.8-17.7,23.2-25.6,36.3l-48.5,80.6c31-7.9,53.3-25.6,76.2-46.7Z"/>
</svg>