<?xml version="1.0" encoding="UTF-8"?>
<svg id="Layer_1" xmlns="http://www.w3.org/2000/svg" version="1.1" viewBox="0 0 283.5 283.5">
  <!-- Generator: Adobe Illustrator 30.3.0, SVG Export Plug-In . SVG Version: 2.1.3 Build 182)  -->
  <defs>
    <style>
      .st0 {
        fill: #ce4f37;
      }

      .st1 {
        fill: #e0ddd6;
      }
    </style>
  </defs>
  <path class="st0" d="M17.1,161.8c.8-1.4,1.8-2.3,2.1-3.8l3.3-5.6,3.5-5.7,3.8-6.3,3.9-6.4,5-7.2c5.1-7.2,13.9-13.6,22.1-17.4,6.1-2.7,12.5-4.4,19.3-4.4h24.6c0-.1-10.3,44.8-10.3,44.8l-6.4,28.8h-11.9c0,0,8.4-37.4,8.4-37.4l-24.2,21.2-7.5,6.5c-6.6,5.6-14.3,8.8-23,9.7H7.3c0,.1,9.7-16.8,9.7-16.8ZM24.2,171.5c8-2.4,15.5-6.3,22-12l27.5-23.9,22-19.6h-10.5c-10,0-19.5,2.7-27.6,8.5s-9,7.5-12.3,12.6l-4.1,6.5-16.9,27.9Z"/>
  <path class="st1" d="M147.1,109.1c3.2,5.1,1.1,14.5-1.6,20.1s-3.4,5.2-6,6.9c-3.2,1.7-6.5,2.7-10.1,2.7h-20.4c0,0,7.7-34,7.7-34h20.3c3.1,0,5.9.9,8.5,2.5l1.6,1.8ZM137.6,127.3c1.8-3.2,2.6-6.5,2.7-10.1,0-2.6-1.9-4.6-4.6-4.6l-12.4-.2-4.3,19.1h11c3-.2,5.8-1.6,7.6-4.2Z"/>
  <path class="st1" d="M174.7,138.8c-.9.1-1.6-.4-1.5-1.3l-4.7-9.9h-8.9c0,0-2.3,11.2-2.3,11.2h-8.8s3.6-16.1,3.6-16.1l4-17.9h21.3c2.4,0,4.4.6,6.6,1.4l2.6,2.8c1.3,3.1.8,6.4,0,9.5-1.3,4.5-4.6,7.7-9.3,8.4l5.7,11.9h-8.3ZM177.2,119.5c1.5-1.5,1.9-3.8,1.4-5.5s-1.5-1.5-2.5-1.5h-13.1s-1.9,8.5-1.9,8.5h11.9c1.4,0,3.1-.3,4.2-1.4Z"/>
  <polygon class="st1" points="270.9 125 252 125 250.5 131.6 270.5 131.6 268.8 138.8 240.3 138.8 247.9 104.7 276.1 104.7 274.5 112.3 254.8 112.2 253.3 118.3 272.5 118.2 270.9 125"/>
  <polygon class="st1" points="235.7 104.7 244.8 104.7 227 132.1 222.8 138.8 213.3 138.8 205.8 104.8 214.4 104.7 219.7 129.6 234.6 106.7 235.7 104.7"/>
  <polygon class="st1" points="197.6 130 195.7 138.8 187.1 138.8 194.6 104.8 203.3 104.7 197.6 130"/>
  <polygon class="st1" points="207.6 164.8 188.9 164.8 187.3 171.6 207.3 171.6 205.7 178.8 177.5 178.7 185 144.9 213.5 144.9 211.8 152.4 191.7 152.5 190.1 158.3 209.1 158.2 207.6 164.8"/>
  <path class="st1" d="M170.3,166.7c-2.3.8-4.5,1-6.8.9h-11.3c0,0-2.4,11.1-2.4,11.1h-8.4s7.6-33.8,7.6-33.8h21c2,0,3.8.4,5.6,1,5,1.9,4,8.8,2.1,13.9s-3.8,5.7-7.3,6.8ZM170.5,156.4c.2-.9.2-2.1-.4-2.7s-1.1-1-2-1h-12.8c0,0-1.9,8.4-1.9,8.4h11.7c2.9-.1,4.9-1.7,5.5-4.7Z"/>
  <path class="st1" d="M245.4,178.7h-9.8s-5.9-11.2-5.9-11.2l-5.4,5.5-1.6,1.5-4.4,4.2h-9.7s17.7-17.5,17.7-17.5l-5.3-9.5c-.7-2.5-2.4-4.2-3.6-6.7h9.5s6,10.5,6,10.5l5.9-6c.7-.7,1.4-1.3,1.7-2.4,1.1-.4,1.9-1,2.3-2.2h10.4s-11.8,11.6-11.8,11.6l-5.4,5.6,9.2,16.7Z"/>
  <path class="st1" d="M128.3,172.3h-17.1c0,0-4.5,6.3-4.5,6.3h-9s22.8-33.6,22.8-33.6l10.9-.2,7.1,33.8h-9s-1.1-6.4-1.1-6.4ZM127,165.2l-2.6-12.9-8.7,13.1,11.3-.2Z"/>
</svg>